<svg width="516" height="343" viewBox="0 0 516 343" fill="none" xmlns="http://www.w3.org/2000/svg">
<mask id="mask0_350_1488" style="mask-type:alpha" maskUnits="userSpaceOnUse" x="195" y="80" width="605" height="676">
<path fill-rule="evenodd" clip-rule="evenodd" d="M707.495 680.424C677.605 709.929 626.706 699.514 586.726 712.38C550.282 724.108 518.402 747.933 480.518 753.465C441.45 759.17 401.924 753.573 363.385 744.994C322.872 735.976 272.345 735.118 247.787 701.659C221.108 665.31 237.577 613.209 233.687 568.288C230.893 536.017 225.069 504.38 227.913 472.113C230.476 443.027 253.322 416.966 249.577 388.008C243.527 341.232 177.734 298.295 200.057 256.747C220.816 218.11 291.826 262.161 329.372 239.489C364.024 218.566 364.518 164.979 395.391 138.8C429.611 109.784 471.467 74.8017 515.85 81.3648C560.375 87.9489 584.574 138.15 615.041 171.28C640.269 198.714 668.68 225.329 680.684 260.612C692.169 294.367 663.073 336.149 681.516 366.663C706.821 408.529 783.389 407.468 797.718 454.242C809.567 492.919 755.815 522.691 740.827 560.264C725.295 599.203 737.33 650.973 707.495 680.424Z" fill="#F2634C"/>
</mask>
<g mask="url(#mask0_350_1488)">
<rect x="24" y="50" width="506" height="299" fill="#F2634C"/>
</g>
</svg>
