<svg width="419" height="370" viewBox="0 0 419 370" fill="none" xmlns="http://www.w3.org/2000/svg">
<mask id="mask0_350_1498" style="mask-type:alpha" maskUnits="userSpaceOnUse" x="-344" y="-380" width="633" height="655">
<path fill-rule="evenodd" clip-rule="evenodd" d="M283.164 115.034C258.069 158.86 179.087 102.006 133.16 123.009C101.097 137.672 100.884 186.353 74.9595 210.248C44.9716 237.89 9.73783 284.997 -29.1104 272.582C-74.2988 258.141 -65.9368 181.248 -104.075 153.034C-132.531 131.982 -175.315 152.077 -208.532 139.849C-247.592 125.47 -290.576 109.767 -314.372 75.6165C-337.662 42.1913 -332.462 -2.99991 -336.328 -43.5554C-340.346 -85.7047 -349.926 -128.939 -337.739 -169.487C-325.473 -210.299 -305.808 -257.235 -266.889 -274.595C-222.529 -294.382 -166.497 -244.392 -122.704 -265.404C-81.7033 -285.077 -94.6633 -376.118 -49.2789 -379.009C-2.02629 -382.018 5.02461 -298.14 46.9894 -276.212C77.1665 -260.444 119.205 -293.532 148.264 -275.787C176.681 -258.434 180.208 -218.138 192.66 -187.258C203.678 -159.934 214.027 -132.529 217.811 -103.311C221.455 -75.1634 206.314 -46.1463 214.452 -18.956C228.968 29.5429 308.32 71.1023 283.164 115.034Z" fill="#1D394E"/>
</mask>
<g mask="url(#mask0_350_1498)">
<rect width="349" height="273" fill="#1D394E"/>
</g>
</svg>
