<svg width="502" height="35" viewBox="0 0 502 35" fill="none" xmlns="http://www.w3.org/2000/svg">
<path d="M0.448174 -34.2552C42.982 -32.4661 88.998 -24.6285 133.624 -11.5989C146.346 -7.87522 158.704 -3.89637 171.785 0.319473C212.14 13.3161 253.871 26.7567 305.607 31.7856C346.627 35.7717 388.215 33.4035 425.871 24.9543C455.958 18.1989 482.974 7.60983 499.993 -4.09591L501.68 -3.76082C484.565 8.00004 457.403 18.6549 427.153 25.4445C389.117 33.9907 347.047 36.3745 305.49 32.3332C253.187 27.2525 211.231 13.7382 170.651 0.668054C157.59 -3.5371 145.271 -7.50953 132.549 -11.2243C88.3253 -24.1559 42.7142 -31.9194 0.641145 -33.699L0.448174 -34.2552Z" fill="#1D394E"/>
</svg>
