<svg width="502" height="62" viewBox="0 0 502 62" fill="none" xmlns="http://www.w3.org/2000/svg">
<path d="M501.248 69.1106C458.714 67.3216 412.698 59.484 368.072 46.4544C355.35 42.7307 342.992 38.7518 329.911 34.536C289.556 21.5394 247.824 8.09875 196.089 3.06984C155.068 -0.916196 113.481 1.45192 75.8246 9.90115C45.7379 16.6566 18.7222 27.2456 1.70294 38.9514L0.0162257 38.6163C17.1305 26.8554 44.2924 16.2006 74.5425 9.41095C112.579 0.864768 154.649 -1.51906 196.206 2.52224C248.509 7.60301 290.465 21.1172 331.045 34.1874C344.106 38.3926 356.425 42.365 369.147 46.0797C413.37 59.0114 458.982 66.7749 501.055 68.5544L501.248 69.1106Z" fill="#F2634C"/>
</svg>
